. 
 
http://www.torrenting.com          :     Once & For all ;)


               www . Torrenting . Com 

(((((((((((((= Enjoy No RAR releases =))))))))))))))))))))


...................................NFO:....................................

.








































          
          
              
              
                    
                    
                    
                    

Tinker.Tailor.Soldier.Spy.2011.BRRiP.AC3-5.1.XviD-SiC 

Poster:
[img]http://img641.imageshack.us/img641/1116/coverwcq.jpg[/img]

IMDB Link: 
http://www.imdb.com/title/tt1340800/

Description:
In the bleak days of the Cold War, espionage veteran George Smiley is forced 
from semi-retirement to uncover a Soviet agent within MI6's echelons. 

MediaInfo:
General
Complete name                    : Tinker.Tailor.Soldier.Spy.2011.BRRiP.AC3-5.1.XviD-SiC.avi
Format                           : AVI
Format/Info                      : Audio Video Interleave
File size                        : 1.40 GiB
Duration                         : 2h 7mn
Overall bit rate                 : 1 571 Kbps

Video
ID                               : 0
Format                           : MPEG-4 Visual
Format profile                   : Advanced Simple@L5
Format settings, BVOP            : Yes
Format settings, QPel            : No
Format settings, GMC             : No warppoints
Format settings, Matrix          : Default (H.263)
Muxing mode                      : Packed bitstream
Codec ID                         : XVID
Codec ID/Hint                    : XviD
Duration                         : 2h 7mn
Bit rate                         : 1 180 Kbps
Width                            : 720 pixels
Height                           : 304 pixels
Display aspect ratio             : 2.35:1
Frame rate                       : 23.976 fps
Resolution                       : 8 bits
Colorimetry                      : 4:2:0
Scan type                        : Progressive
Bits/(Pixel*Frame)               : 0.225
Stream size                      : 1.05 GiB (75%)
Writing library                  : XviD 64

Audio
ID                               : 1
Format                           : AC-3
Format/Info                      : Audio Coding 3
Format_Settings_ModeExtension    : CM (complete main)
Codec ID                         : 2000
Duration                         : 2h 7mn
Bit rate mode                    : Constant
Bit rate                         : 384 Kbps
Channel(s)                       : 6 channels
Channel positions                : Front: L C R, Side: L R, LFE
Sampling rate                    : 48.0 KHz
Stream size                      : 350 MiB (24%)
Alignment                        : Aligned on interleaves
Interleave, duration             : 64 ms (1.53 video frames)
Interleave, preload duration     : 192 ms
Title                            : 6ch English

Screenshots:
[img]http://img807.imageshack.us/img807/55/64476243.png[/img]
[img]http://img543.imageshack.us/img543/2765/69500396.png[/img]
[img]http://img7.imageshack.us/img7/651/85281920.png[/img]
[img]http://img35.imageshack.us/img35/3110/77900646.png[/img]

Note: Hardcoded Subs for non English parts Enjoy!

Source : BluRay-HiDt Thanks!!!

Enjoy!

Respects to T00NG0D, ELEKTRI4KA, PA, YeFsTe, MrRep and everyone in the struggle...